<svg xmlns="http://www.w3.org/2000/svg" xmlns:xlink="http://www.w3.org/1999/xlink" viewBox="0,0,256,256" width="48px" height="48px" fill-rule="nonzero"><g fill="none" fill-rule="nonzero" stroke="none" stroke-width="1" stroke-linecap="butt" stroke-linejoin="miter" stroke-miterlimit="10" stroke-dasharray="" stroke-dashoffset="0" font-family="none" font-weight="none" font-size="none" text-anchor="none" style="mix-blend-mode: normal"><g transform="scale(5.33333,5.33333)"><path d="M43,38.833c0,2.302 -1.865,4.167 -4.167,4.167h-21.666c-2.301,0 -4.167,-1.865 -4.167,-4.167v-21.666c0,-2.302 1.866,-4.167 4.167,-4.167h21.667c2.301,0 4.166,1.865 4.166,4.167z" fill="#3e58c0"></path><path d="M35,30.833c0,2.302 -1.865,4.167 -4.167,4.167h-21.666c-2.301,0 -4.167,-1.865 -4.167,-4.167v-21.666c0,-2.302 1.866,-4.167 4.167,-4.167h21.667c2.301,0 4.166,1.865 4.166,4.167z" fill="#c8d5e6"></path><path d="M18,28.121l-6.936,-6.935l2.122,-2.122l4.814,4.815l10.814,-10.815l2.122,2.122z" fill="#339af0"></path></g></g></svg>